<svg width="345" height="66" viewBox="76 216 345 66" fill="none" xmlns="http://www.w3.org/2000/svg">
<path d="M344.655 232.391L328.741 264.805C328.491 265.305 328.116 265.703 327.616 266C327.131 266.312 326.592 266.469 325.999 266.469C325.42 266.469 324.881 266.312 324.381 266C323.897 265.703 323.522 265.305 323.256 264.805L307.366 232.391H314.186L325.999 256.602L337.858 232.391H344.655ZM375.733 252.266H356.491V246.125H375.733V252.266ZM378.475 266H356.491C355.647 266 354.725 265.852 353.725 265.555C352.725 265.258 351.795 264.773 350.936 264.102C350.092 263.414 349.381 262.531 348.803 261.453C348.241 260.359 347.959 259.023 347.959 257.445V235.461C347.959 235.039 348.038 234.641 348.194 234.266C348.35 233.891 348.561 233.562 348.827 233.281C349.108 233 349.436 232.781 349.811 232.625C350.186 232.469 350.592 232.391 351.03 232.391H378.475V238.484H354.053V257.445C354.053 258.242 354.264 258.852 354.686 259.273C355.108 259.695 355.725 259.906 356.538 259.906H378.475V266ZM417.967 243.688C417.967 245.078 417.795 246.32 417.452 247.414C417.108 248.508 416.639 249.477 416.045 250.32C415.467 251.148 414.795 251.859 414.03 252.453C413.264 253.047 412.459 253.539 411.616 253.93C410.788 254.305 409.944 254.578 409.084 254.75C408.241 254.922 407.444 255.008 406.694 255.008L419.42 266H409.999L397.295 255.008H392.913V248.914H406.694C407.459 248.852 408.155 248.695 408.78 248.445C409.42 248.18 409.967 247.828 410.42 247.391C410.889 246.953 411.249 246.43 411.499 245.82C411.749 245.195 411.874 244.484 411.874 243.688V239.844C411.874 239.5 411.827 239.242 411.733 239.07C411.655 238.883 411.545 238.75 411.405 238.672C411.28 238.578 411.139 238.523 410.983 238.508C410.842 238.492 410.709 238.484 410.584 238.484H390.475V266H384.381V235.461C384.381 235.039 384.459 234.641 384.616 234.266C384.772 233.891 384.983 233.562 385.249 233.281C385.53 233 385.858 232.781 386.233 232.625C386.608 232.469 387.014 232.391 387.452 232.391H410.584C411.944 232.391 413.092 232.641 414.03 233.141C414.967 233.625 415.725 234.242 416.303 234.992C416.897 235.727 417.319 236.523 417.569 237.383C417.834 238.242 417.967 239.047 417.967 239.797V243.688Z" fill="white"/>
<path d="M277.592 252.266H296.834V246.125H277.592V252.266ZM274.85 266H296.834C297.678 266 298.6 265.852 299.6 265.555C300.6 265.258 301.53 264.773 302.389 264.102C303.233 263.414 303.944 262.531 304.522 261.453C305.084 260.359 305.366 259.023 305.366 257.445V235.461C305.366 235.039 305.288 234.641 305.131 234.266C304.975 233.891 304.764 233.562 304.499 233.281C304.217 233 303.889 232.781 303.514 232.625C303.139 232.469 302.733 232.391 302.295 232.391H274.85V238.484H299.272V257.445C299.272 258.242 299.061 258.852 298.639 259.273C298.217 259.695 297.6 259.906 296.788 259.906H274.85V266Z" fill="white"/>
<path d="M189.116 266H167.131C166.569 266 165.959 265.938 165.303 265.812C164.663 265.672 164.022 265.461 163.381 265.18C162.756 264.898 162.155 264.539 161.577 264.102C160.999 263.648 160.483 263.109 160.03 262.484C159.592 261.844 159.241 261.109 158.975 260.281C158.709 259.438 158.577 258.492 158.577 257.445V240.945C158.577 240.383 158.639 239.781 158.764 239.141C158.905 238.484 159.116 237.844 159.397 237.219C159.678 236.578 160.045 235.969 160.499 235.391C160.952 234.812 161.491 234.305 162.116 233.867C162.756 233.414 163.491 233.055 164.319 232.789C165.147 232.523 166.084 232.391 167.131 232.391H189.116V238.484H167.131C166.334 238.484 165.725 238.695 165.303 239.117C164.881 239.539 164.67 240.164 164.67 240.992V257.445C164.67 258.227 164.881 258.836 165.303 259.273C165.741 259.695 166.35 259.906 167.131 259.906H189.116V266ZM229.639 252.406C229.639 254.453 229.288 256.336 228.584 258.055C227.881 259.773 226.905 261.258 225.655 262.508C224.405 263.758 222.92 264.734 221.202 265.438C219.499 266.125 217.639 266.469 215.624 266.469H207.374C205.358 266.469 203.491 266.125 201.772 265.438C200.053 264.734 198.569 263.758 197.319 262.508C196.069 261.258 195.084 259.773 194.366 258.055C193.663 256.336 193.311 254.453 193.311 252.406V245.984C193.311 243.953 193.663 242.078 194.366 240.359C195.084 238.625 196.069 237.141 197.319 235.906C198.569 234.656 200.053 233.68 201.772 232.977C203.491 232.273 205.358 231.922 207.374 231.922H215.624C217.639 231.922 219.499 232.273 221.202 232.977C222.92 233.68 224.405 234.656 225.655 235.906C226.905 237.141 227.881 238.625 228.584 240.359C229.288 242.078 229.639 243.953 229.639 245.984V252.406ZM223.545 245.984C223.545 244.781 223.35 243.695 222.959 242.727C222.584 241.742 222.045 240.906 221.342 240.219C220.655 239.516 219.819 238.977 218.834 238.602C217.866 238.211 216.795 238.016 215.624 238.016H207.374C206.186 238.016 205.1 238.211 204.116 238.602C203.147 238.977 202.311 239.516 201.608 240.219C200.905 240.906 200.358 241.742 199.967 242.727C199.592 243.695 199.405 244.781 199.405 245.984V252.406C199.405 253.609 199.592 254.703 199.967 255.688C200.358 256.656 200.905 257.492 201.608 258.195C202.311 258.883 203.147 259.422 204.116 259.812C205.1 260.188 206.186 260.375 207.374 260.375H215.577C216.764 260.375 217.842 260.188 218.811 259.812C219.795 259.422 220.639 258.883 221.342 258.195C222.045 257.492 222.584 256.656 222.959 255.688C223.35 254.703 223.545 253.609 223.545 252.406V245.984ZM269.202 251.938C269.202 253.984 268.842 255.867 268.124 257.586C267.42 259.305 266.444 260.789 265.194 262.039C263.944 263.273 262.459 264.242 260.741 264.945C259.022 265.648 257.155 266 255.139 266H238.686C238.249 266 237.842 265.922 237.467 265.766C237.092 265.609 236.764 265.398 236.483 265.133C236.217 264.852 236.006 264.523 235.85 264.148C235.694 263.773 235.616 263.367 235.616 262.93V235.461C235.616 235.039 235.694 234.641 235.85 234.266C236.006 233.891 236.217 233.562 236.483 233.281C236.764 233 237.092 232.781 237.467 232.625C237.842 232.469 238.249 232.391 238.686 232.391H255.139C257.155 232.391 259.022 232.742 260.741 233.445C262.459 234.148 263.944 235.125 265.194 236.375C266.444 237.609 267.42 239.094 268.124 240.828C268.842 242.547 269.202 244.422 269.202 246.453V251.938ZM263.108 246.453C263.108 245.266 262.913 244.18 262.522 243.195C262.147 242.211 261.608 241.375 260.905 240.688C260.202 239.984 259.358 239.445 258.374 239.07C257.405 238.68 256.327 238.484 255.139 238.484H241.709V259.906H255.139C256.327 259.906 257.405 259.719 258.374 259.344C259.358 258.953 260.202 258.414 260.905 257.727C261.608 257.023 262.147 256.188 262.522 255.219C262.913 254.234 263.108 253.141 263.108 251.938V246.453Z" fill="white"/>
<path d="M78 246.779L89.4607 254.674L104.742 265.371V281.161L78 262.569V246.779Z" fill="white"/>
<path d="M104.742 244.232V228.187L78 246.779L89.4607 254.674L104.742 244.232Z" fill="#CACACA"/>
<path d="M143.483 252.382L132.022 244.487L116.741 233.79V218L143.483 236.592V252.382Z" fill="#1E90FF"/>
<path d="M116.741 254.929V270.974L143.483 252.382L132.022 244.487L116.741 254.929Z" fill="#17538D"/>
</svg>
